<svg xmlns="http://www.w3.org/2000/svg" xmlns:xlink="http://www.w3.org/1999/xlink" viewBox="0 0 1366 719"><defs><style>.cls-1{fill:url(#Gradiente_sem_nome_16);}</style><linearGradient id="Gradiente_sem_nome_16" y1="359.5" x2="1366" y2="359.5" gradientUnits="userSpaceOnUse"><stop offset="0" stop-color="#3fe6ff"/><stop offset="1" stop-color="#1599ff"/></linearGradient></defs><title>background</title><g id="Camada_2" data-name="Camada 2"><g id="Camada_1-2" data-name="Camada 1"><path class="cls-1" d="M140.17,692.5C194,692.5,244.51,702.15,288,719c43.49-16.85,94-26.5,147.83-26.5s104.34,9.65,147.83,26.5c43.49-16.85,94-26.5,147.83-26.5s104.34,9.65,147.83,26.5c43.49-16.85,94-26.5,147.83-26.5S1131.51,702.15,1175,719c43.49-16.85,94-26.5,147.83-26.5q22,0,43.17,2.11V335s-118-111-265-109S683,0,683,0H0V716.13C41.71,701.06,89.45,692.5,140.17,692.5Z"/></g></g></svg>